<svg xmlns="http://www.w3.org/2000/svg" viewBox="0 0 480 400" fill="none"><defs>
  <linearGradient id="gFront" x1="0" y1="0" x2="0" y2="1"><stop offset="0" stop-color="#1D2B47"/><stop offset="1" stop-color="#0F1829"/></linearGradient>
  <linearGradient id="gSide" x1="0" y1="0" x2="0" y2="1"><stop offset="0" stop-color="#111B2E"/><stop offset="1" stop-color="#090F1B"/></linearGradient>
  <linearGradient id="gTop" x1="0" y1="0" x2="1" y2="1"><stop offset="0" stop-color="#2F4266"/><stop offset="1" stop-color="#22324F"/></linearGradient>
  <linearGradient id="gAmber" x1="0" y1="0" x2="1" y2="0"><stop offset="0" stop-color="#FFC93C"/><stop offset="1" stop-color="#FF7A1A"/></linearGradient>
  <linearGradient id="gMetal" x1="0" y1="0" x2="1" y2="1"><stop offset="0" stop-color="#E4E9F1"/><stop offset="1" stop-color="#8E9AAE"/></linearGradient>
  <linearGradient id="gCyl" x1="0" y1="0" x2="1" y2="0">
    <stop offset="0" stop-color="#0A111F"/><stop offset=".35" stop-color="#26385A"/><stop offset=".6" stop-color="#16233B"/><stop offset="1" stop-color="#070C17"/>
  </linearGradient>
  <linearGradient id="gCylAmber" x1="0" y1="0" x2="1" y2="0">
    <stop offset="0" stop-color="#B36A00"/><stop offset=".35" stop-color="#FFC93C"/><stop offset=".6" stop-color="#FF9A1A"/><stop offset="1" stop-color="#8A4300"/>
  </linearGradient>
  <linearGradient id="gTeal" x1="0" y1="0" x2="1" y2="0"><stop offset="0" stop-color="#6FF0E2"/><stop offset="1" stop-color="#1FA7C9"/></linearGradient>
  <radialGradient id="gShadow"><stop offset="0" stop-color="#000" stop-opacity=".55"/><stop offset="1" stop-color="#000" stop-opacity="0"/></radialGradient>
  <filter id="glow" x="-50%" y="-50%" width="200%" height="200%"><feGaussianBlur stdDeviation="3"/><feMerge><feMergeNode/><feMergeNode in="SourceGraphic"/></feMerge></filter>
</defs><ellipse cx="240.0" cy="362" rx="125.2" ry="20.0" fill="url(#gShadow)"/><g transform="translate(205.91 360.00) scale(0.89767)"><g transform="matrix(0.8660 0.5000 0.0000 1.0000 -74.478 -250.200)"><rect width="86.0" height="207.2" fill="url(#gSide)" stroke="#ffffff" stroke-opacity=".10" stroke-width="1.1139935483870966"/></g><g transform="matrix(0.8660 -0.5000 0.0000 1.0000 0.000 -207.200)"><rect width="173.7" height="207.2" fill="url(#gFront)" stroke="#ffffff" stroke-opacity=".10" stroke-width="1.1139935483870966"/></g><g transform="matrix(0.8660 -0.5000 0.8660 0.5000 -74.478 -250.200)"><rect width="173.7" height="86.0" fill="url(#gTop)" stroke="#ffffff" stroke-opacity=".10" stroke-width="1.1139935483870966"/></g><g transform="matrix(0.8660 -0.5000 0.0000 1.0000 0.000 -207.200)"><rect x="12.159" y="14.504000000000001" width="149.38199999999998" height="178.19199999999998" rx="5.210999999999999" fill="#ffffff" fill-opacity=".03" stroke="#ffffff" stroke-opacity=".08" stroke-width="1.1139935483870966"/><g transform="translate(24.32 39.37) scale(0.6013)"><g transform="translate(0 -14)"><path d="M24 3.5 41.8 13.75v20.5L24 44.5 6.2 34.25v-20.5Z" stroke="url(#gAmber)" stroke-width="3.2" fill="none" stroke-linejoin="round"/><path d="M16.5 33V15M31.5 33V15" stroke="#E8EDF5" stroke-width="4" stroke-linecap="round"/><path d="M16.5 15 31.5 33" stroke="url(#gAmber)" stroke-width="4" stroke-linecap="round"/></g><g transform="translate(62 0)" stroke="#E8EDF5" stroke-width="3.6" fill="none" stroke-linecap="round" stroke-linejoin="round"><path d="M0 20V0l16 20V0"/><path d="M28 20 37 0l9 20"/><path d="M58 0l16 20M74 0 58 20"/><path d="M86 0v20"/><circle cx="108" cy="10" r="10"/><path d="M130 20V0l16 20V0"/></g></g><text x="24.318" y="97.38399999999999" font-family="'Space Grotesk','Segoe UI',Arial,sans-serif" font-size="10.7694" letter-spacing="2.0844" fill="#8C9BB4">SODIUM-ION CELL</text><text x="24.318" y="128.464" font-family="'Space Grotesk','Segoe UI',Arial,sans-serif" font-size="24.318" font-weight="700" fill="#E8EDF5">NX-P210</text><text x="24.318" y="153.328" font-family="'Space Grotesk','Segoe UI',Arial,sans-serif" font-size="13.027499999999998" font-weight="600" fill="#FFB81C">3.1V · 210Ah</text><rect x="24.318" y="169.90399999999997" width="125.064" height="3.7295999999999996" rx="1.8647999999999998" fill="url(#gAmber)"/></g><g transform="matrix(0.8660 -0.5000 0.8660 0.5000 -74.478 -250.200)"><ellipse cx="86.85" cy="43.0" rx="12.159" ry="14.620000000000001" fill="#0A0F1A" stroke="#ffffff" stroke-opacity=".12" stroke-width="1.1139935483870966"/><rect x="62.532" y="17.2" width="8.685" height="51.6" rx="2.2279870967741933" fill="#ffffff" fill-opacity=".06"/></g><g transform="translate(0 -0.00)"><g transform="matrix(0.8660 -0.5000 0.8660 0.5000 -74.478 -250.200)"><circle cx="34.74" cy="43.0" r="14.7645" fill="#5B677C"/></g></g><g transform="translate(0 -1.21)"><g transform="matrix(0.8660 -0.5000 0.8660 0.5000 -74.478 -250.200)"><circle cx="34.74" cy="43.0" r="14.7645" fill="#5B677C"/></g></g><g transform="translate(0 -2.42)"><g transform="matrix(0.8660 -0.5000 0.8660 0.5000 -74.478 -250.200)"><circle cx="34.74" cy="43.0" r="14.7645" fill="#5B677C"/></g></g><g transform="translate(0 -3.63)"><g transform="matrix(0.8660 -0.5000 0.8660 0.5000 -74.478 -250.200)"><circle cx="34.74" cy="43.0" r="14.7645" fill="#5B677C"/></g></g><g transform="translate(0 -4.83)"><g transform="matrix(0.8660 -0.5000 0.8660 0.5000 -74.478 -250.200)"><circle cx="34.74" cy="43.0" r="14.7645" fill="#5B677C"/></g></g><g transform="translate(0 -6.04)"><g transform="matrix(0.8660 -0.5000 0.8660 0.5000 -74.478 -250.200)"><circle cx="34.74" cy="43.0" r="14.7645" fill="#5B677C"/></g></g><g transform="translate(0 -7.25)"><g transform="matrix(0.8660 -0.5000 0.8660 0.5000 -74.478 -250.200)"><circle cx="34.74" cy="43.0" r="14.7645" fill="url(#gMetal)"/></g></g><g transform="translate(0 -7.25)"><g transform="matrix(0.8660 -0.5000 0.8660 0.5000 -74.478 -250.200)"><circle cx="34.74" cy="43.0" r="11.51631" fill="none" stroke="#FFB81C" stroke-width="2.36232"/><circle cx="34.74" cy="43.0" r="4.4293499999999995" fill="#3A4558"/></g></g><g transform="translate(0 -0.00)"><g transform="matrix(0.8660 -0.5000 0.8660 0.5000 -74.478 -250.200)"><circle cx="138.96" cy="43.0" r="14.7645" fill="#5B677C"/></g></g><g transform="translate(0 -1.21)"><g transform="matrix(0.8660 -0.5000 0.8660 0.5000 -74.478 -250.200)"><circle cx="138.96" cy="43.0" r="14.7645" fill="#5B677C"/></g></g><g transform="translate(0 -2.42)"><g transform="matrix(0.8660 -0.5000 0.8660 0.5000 -74.478 -250.200)"><circle cx="138.96" cy="43.0" r="14.7645" fill="#5B677C"/></g></g><g transform="translate(0 -3.63)"><g transform="matrix(0.8660 -0.5000 0.8660 0.5000 -74.478 -250.200)"><circle cx="138.96" cy="43.0" r="14.7645" fill="#5B677C"/></g></g><g transform="translate(0 -4.83)"><g transform="matrix(0.8660 -0.5000 0.8660 0.5000 -74.478 -250.200)"><circle cx="138.96" cy="43.0" r="14.7645" fill="#5B677C"/></g></g><g transform="translate(0 -6.04)"><g transform="matrix(0.8660 -0.5000 0.8660 0.5000 -74.478 -250.200)"><circle cx="138.96" cy="43.0" r="14.7645" fill="#5B677C"/></g></g><g transform="translate(0 -7.25)"><g transform="matrix(0.8660 -0.5000 0.8660 0.5000 -74.478 -250.200)"><circle cx="138.96" cy="43.0" r="14.7645" fill="url(#gMetal)"/></g></g><g transform="translate(0 -7.25)"><g transform="matrix(0.8660 -0.5000 0.8660 0.5000 -74.478 -250.200)"><circle cx="138.96" cy="43.0" r="4.4293499999999995" fill="#3A4558"/></g></g></g></svg>